<svg width="184" height="30" viewBox="0 0 184 30" fill="none" xmlns="http://www.w3.org/2000/svg">
<line x1="-6.83843e-08" y1="14.3328" x2="62.578" y2="14.3328" stroke="#982546" stroke-width="1.56445"/>
<path d="M85.0596 23.1586L85.0442 23.1454L85.028 23.1332C81.4217 20.4166 78.4945 18.181 76.4259 16.0214C74.3651 13.8699 73.2305 11.868 73.0959 9.63613C72.8772 6.01172 75.5497 2.98 79.2639 2.69321C81.3016 2.53587 83.4073 3.32574 84.8183 4.75652L85.3597 5.30545L85.8301 4.6784C87.0561 3.044 89.0474 1.93778 91.0851 1.78043C94.7994 1.49364 97.8113 4.08643 98.03 7.71084C98.1646 9.94271 97.2811 12.1004 95.4978 14.5487C93.7079 17.0063 91.0763 19.6712 87.8298 22.9168L87.8152 22.9314L87.8015 22.9468L86.5119 24.4011L85.0596 23.1586Z" fill="#FF2459" stroke="white" stroke-width="1.33917"/>
<path d="M96.386 25.7363L96.3732 25.7206L96.3594 25.7057C93.6402 22.7742 91.4433 20.3737 89.9822 18.1749C88.5273 15.9855 87.8616 14.0822 88.0899 12.1418C88.4602 8.993 91.223 6.79803 94.4632 7.12409C96.241 7.30298 97.9325 8.30822 98.926 9.75707L99.362 10.3929L99.9356 9.85867C101.243 8.64133 103.128 7.99605 104.906 8.17494C108.146 8.501 110.334 11.1941 109.964 14.343C109.736 16.2833 108.643 18.0097 106.713 19.8585C104.775 21.7152 102.071 23.6226 98.7342 25.9447L98.7173 25.9564L98.7011 25.9692L97.4101 26.9878L96.386 25.7363Z" fill="#FF2459" stroke="white" stroke-width="1.33917"/>
<line x1="120.936" y1="14.3326" x2="183.514" y2="14.3326" stroke="#982546" stroke-width="1.56445"/>
</svg>
